#!OML:ASF X:\für Bonn\!DataBase\2005_08_11_Bastian_Final\c3d\Bastian.ASF
:FULLY-SPECIFIED
:DEGREES
123
root 1.16171 17.1015 0.159764 174.157 -6.23021 -174.202
lowerback 18.4378 -2.33758 1.18413
upperback 3.51198 -3.31095 1.3418
thorax -6.50641 -1.85678 1.57115
lowerneck -21.7018 -6.91333 -3.56353
upperneck 2.53628 -8.45217 8.64201
head 4.7205 -3.31818 2.44636
rclavicle -3.47873e-015 -7.15625e-015
rhumerus 80.0641 9.52821 17.8474
rradius 39.0409
rwrist -69.7393
rhand -45.8018 -4.61546
rfingers 7.12502
rthumb -18.555 -33.7505
lclavicle -3.47873e-015 -7.15625e-015
lhumerus 77.1521 -17.2435 -55.2156
lradius 32.534
lwrist 46.2968
lhand -43.0888 15.0755
lfingers 7.12502
lthumb -15.9439 44.4392
rfemur -14.2153 -1.65073 26.7846
rtibia 47.5223
rfoot -22.9886 -11.5306
rtoes -12.7399
lfemur -13.4819 3.38913 -13.6603
ltibia 46.1755
lfoot -20.8953 -11.7838
ltoes -9.82367
124
root 1.15569 17.2226 0.114581 174.077 -6.35564 -174.155
lowerback 17.8767 -2.34995 1.11597
upperback 3.52405 -3.33624 1.36593
thorax -6.18683 -1.8645 1.60838
lowerneck -21.1397 -6.89003 -3.65137
upperneck 2.51787 -8.446 8.72191
head 4.63925 -3.33895 2.49522
rclavicle -4.96962e-016 -8.34896e-015
rhumerus 80.1247 9.78402 17.9862
rradius 39.0142
rwrist -70.0424
rhand -45.7949 -4.46014
rfingers 7.12502
rthumb -18.5484 -33.5958
lclavicle -4.96962e-016 -8.34896e-015
lhumerus 77.4967 -17.2666 -55.4091
lradius 32.5771
lwrist 46.2068
lhand -42.9115 15.0018
lfingers 7.12502
lthumb -15.7731 44.3792
rfemur -12.9422 -1.29804 26.8556
rtibia 45.644
rfoot -21.9162 -11.7822
rtoes -13.5457
lfemur -11.8855 2.28879 -13.6283
ltibia 43.9126
lfoot -20.3612 -10.8386
ltoes -9.03381
125
root 1.14852 17.3256 0.0717382 173.872 -6.46524 -174.077
lowerback 17.4379 -2.36479 1.10672
upperback 3.56625 -3.35989 1.38664
thorax -5.90364 -1.87566 1.614
lowerneck -20.5455 -6.87507 -3.79198
upperneck 2.4884 -8.44261 8.84952
head 4.55423 -3.35964 2.5678
rclavicle 2.127e-014 -3.02153e-014
rhumerus 80.1477 9.95826 18.2523
rradius 39.051
rwrist -70.557
rhand -45.7566 -4.33341
rfingers 7.12502
rthumb -18.5116 -33.4726
lclavicle 2.127e-014 -3.02153e-014
lhumerus 77.7763 -17.2596 -55.4688
lradius 32.6003
lwrist 45.9671
lhand -42.6378 14.9867
lfingers 7.12502
lthumb -15.5096 44.3846
rfemur -11.6504 -0.928281 26.9574
rtibia 44.0113
rfoot -20.9949 -12.0138
rtoes -13.9148
lfemur -10.2251 1.389 -13.5568
ltibia 41.7961
lfoot -19.7054 -9.8233
ltoes -9.07592
126
root 1.14161 17.4114 0.0274268 173.537 -6.51975 -174.084
lowerback 17.1128 -2.3424 1.01776
upperback 3.63792 -3.35483 1.36698
thorax -5.64882 -1.87392 1.62071
lowerneck -19.8756 -6.85786 -3.89493
upperneck 2.40353 -8.44153 8.97078
head 4.43825 -3.38432 2.63463
rclavicle 9.44227e-015 4.77083e-015
rhumerus 80.1395 10.1267 18.6084
rradius 39.1163
rwrist -71.1658
rhand -45.7414 -4.16018
rfingers 7.12502
rthumb -18.497 -33.3008
lclavicle 9.44227e-015 4.77083e-015
lhumerus 78.0649 -17.2342 -55.5654
lradius 32.6101
lwrist 45.6752
lhand -42.3894 15.0077
lfingers 7.12502
lthumb -15.2702 44.4241
rfemur -10.3061 -0.469628 26.9982
rtibia 42.6473
rfoot -20.1493 -12.315
rtoes -14.2456
lfemur -8.4369 0.573294 -13.608
ltibia 39.8384
lfoot -19.0446 -8.46748
ltoes -10.3832
127
root 1.13451 17.4822 -0.0197424 173.144 -6.55207 -174.043
lowerback 16.7973 -2.32149 0.976522
upperback 3.71999 -3.34439 1.36193
thorax -5.38993 -1.87139 1.61527
lowerneck -19.1576 -6.84103 -4.01558
upperneck 2.29112 -8.43751 9.10814
head 4.30729 -3.40887 2.71108
rclavicle -2.5842e-015 -5.1684e-015
rhumerus 80.1296 10.2715 19.0741
rradius 39.2244
rwrist -71.9348
rhand -45.721 -3.93839
rfingers 7.12502
rthumb -18.4773 -33.0808
lclavicle -2.5842e-015 -5.1684e-015
lhumerus 78.3857 -17.2171 -55.6811
lradius 32.5755
lwrist 45.4392
lhand -42.1766 15.0232
lfingers 7.12502
lthumb -15.0653 44.455
rfemur -8.99816 0.0116254 27.0995
rtibia 41.5308
rfoot -19.4756 -12.547
rtoes -13.9723
lfemur -6.63559 -0.21369 -13.6414
ltibia 38.0588
lfoot -18.4332 -6.9571
ltoes -13.2387
128
root 1.12637 17.5386 -0.0674766 172.784 -6.51815 -174.028
lowerback 16.4157 -2.27864 0.938868
upperback 3.81 -3.30524 1.33985
thorax -5.08903 -1.85471 1.58011
lowerneck -18.4973 -6.82525 -4.10682
upperneck 2.1749 -8.43512 9.23101
head 4.18148 -3.43174 2.77758
rclavicle 5.31749e-015 -9.14409e-015
rhumerus 80.095 10.382 19.579
rradius 39.3511
rwrist -72.6654
rhand -45.6997 -3.81831
rfingers 7.12502
rthumb -18.4569 -32.9627
lclavicle 5.31749e-015 -9.14409e-015
lhumerus 78.6169 -17.1932 -55.5029
lradius 32.4639
lwrist 44.8625
lhand -41.9484 15.0936
lfingers 7.12502
lthumb -14.8455 44.5417
rfemur -7.82185 0.523996 27.1916
rtibia 40.6599
rfoot -18.8153 -12.746
rtoes -13.2265
lfemur -4.86911 -0.902556 -13.7251
ltibia 36.4457
lfoot -17.8729 -5.44653
ltoes -16.9654
129
root 1.11663 17.5849 -0.114277 172.532 -6.45497 -174.015
lowerback 15.9474 -2.24541 0.903549
upperback 3.86239 -3.27117 1.33074
thorax -4.78084 -1.83747 1.55549
lowerneck -17.8754 -6.80341 -4.21171
upperneck 2.0999 -8.42425 9.33627
head 4.07283 -3.45057 2.84058
rclavicle -3.27995e-015 -2.38542e-015
rhumerus 80.0946 10.4558 20.149
rradius 39.5074
rwrist -73.4061
rhand -45.6579 -3.67262
rfingers 7.12502
rthumb -18.4166 -32.8208
lclavicle -3.27995e-015 -2.38542e-015
lhumerus 78.8473 -17.1893 -55.4678
lradius 32.3657
lwrist 44.4503
lhand -41.7962 15.2342
lfingers 7.12502
lthumb -14.6988 44.6931
rfemur -6.8624 1.00106 27.2712
rtibia 39.9985
rfoot -18.1803 -12.832
rtoes -11.7641
lfemur -3.25796 -1.57943 -13.8463
ltibia 35.011
lfoot -17.3851 -4.04053
ltoes -20.5296
130
root 1.10739 17.6232 -0.161024 172.476 -6.38225 -173.991
lowerback 15.3172 -2.2027 0.880902
upperback 3.85834 -3.21168 1.33412
thorax -4.4454 -1.80279 1.52581
lowerneck -17.2835 -6.7955 -4.32258
upperneck 2.02932 -8.42959 9.44582
head 3.97124 -3.47552 2.90385
rclavicle -1.79403e-014 1.59028e-015
rhumerus 80.0067 10.4735 20.7977
rradius 39.741
rwrist -74.1104
rhand -45.6193 -3.66741
rfingers 7.12502
rthumb -18.3795 -32.8191
lclavicle -1.79403e-014 1.59028e-015
lhumerus 79.0489 -17.1437 -55.3907
lradius 32.2751
lwrist 43.9639
lhand -41.7263 15.4559
lfingers 7.12502
lthumb -14.6315 44.9197
rfemur -6.21195 1.4736 27.3661
rtibia 39.5322
rfoot -17.6179 -12.886
rtoes -10.073
lfemur -1.94929 -2.1539 -13.9605
ltibia 33.7394
lfoot -16.9452 -2.80795
ltoes -23.556
131
root 1.09877 17.6552 -0.208164 172.633 -6.37969 -173.887
lowerback 14.5005 -2.20599 0.942622
upperback 3.78325 -3.18849 1.35086
thorax -4.08633 -1.78069 1.46285
lowerneck -16.6591 -6.76897 -4.34853
upperneck 1.91893 -8.41998 9.51839
head 3.84553 -3.49536 2.94537
rclavicle -1.54058e-014 5.96354e-015
rhumerus 79.9117 10.4872 21.3613
rradius 39.9577
rwrist -74.6663
rhand -45.5835 -3.69258
rfingers 7.12502
rthumb -18.3451 -32.8475
lclavicle -1.54058e-014 5.96354e-015
lhumerus 79.2579 -17.0542 -55.4992
lradius 32.2344
lwrist 43.7568
lhand -41.7535 15.6798
lfingers 7.12502
lthumb -14.6577 45.1417
rfemur -5.88256 1.8292 27.5314
rtibia 39.2185
rfoot -17.181 -12.9522
rtoes -8.71608
lfemur -0.978501 -2.6489 -13.9777
ltibia 32.6182
lfoot -16.6085 -1.73031
ltoes -25.7704
